<svg xmlns="http://www.w3.org/2000/svg" xmlns:xlink="http://www.w3.org/1999/xlink" viewBox="0 0 433 155" style="enable-background:new 0 0 433 155;" xml:space="preserve">

    <defs>
        <linearGradient id="bosch-gradient" x1="-1408.7516" y1="346.28128" x2="-1408.3533" y2="346.28128" gradientTransform="matrix(0, -723.07397, -723.07397, 0, 250418.98218, -1018279.61572)" gradientUnits="userSpaceOnUse">
            <stop offset="0" stop-color="#942231"/>
            <stop offset="0.1533" stop-color="#ca171a"/>
            <stop offset="0.206" stop-color="#982e6b"/>
            <stop offset="0.3241" stop-color="#203b78"/>
            <stop offset="0.4181" stop-color="#312b6e"/>
            <stop offset="0.5581" stop-color="#1b62a1"/>
            <stop offset="0.6556" stop-color="#5bafbf"/>
            <stop offset="0.7385" stop-color="#078daf"/>
            <stop offset="0.8875" stop-color="#00a14b"/>
            <stop offset="1" stop-color="#00917d"/>
        </linearGradient>
        <linearGradient id="linear-gradient" x1="-292.52035" y1="454.88716" x2="-291.75543" y2="454.88716" gradientTransform="matrix(161.0472, 0, 0, -161.0472, 47079.92736, 73333.9482)" gradientUnits="userSpaceOnUse">
            <stop offset="0" stop-color="#689f5f"/>
            <stop offset="0.1422" stop-color="#4e9752"/>
            <stop offset="0.30262" stop-color="#399147"/>
            <stop offset="0.48097" stop-color="#2a8c40"/>
            <stop offset="0.68932" stop-color="#218a3b"/>
            <stop offset="1" stop-color="#1e893a"/>
        </linearGradient>
        <linearGradient id="linear-gradient-2" x1="-299.6699" y1="456.71699" x2="-298.90459" y2="456.71699" gradientTransform="matrix(-42.8122, -23.9993, -23.9993, 42.8122, -1845.0315, -26649.9633)" gradientUnits="userSpaceOnUse">
            <stop offset="0" stop-color="#61b16d"/>
            <stop offset="1" stop-color="#86b856"/>
        </linearGradient>
        <linearGradient id="linear-gradient-3" x1="-292.52035" y1="454.94261" x2="-291.75543" y2="454.94261" gradientTransform="matrix(161.0472, 0, 0, -161.0472, 47079.92736, 73367.6982)" gradientUnits="userSpaceOnUse">
            <stop offset="0" stop-color="#94bd54"/>
            <stop offset="0.31031" stop-color="#8cbc66"/>
            <stop offset="0.67778" stop-color="#85bb73"/>
            <stop offset="1" stop-color="#83bb78"/>
        </linearGradient>
        <linearGradient id="linear-gradient-4" x1="-292.84565" y1="454.6873" x2="-292.07977" y2="454.6873" gradientTransform="matrix(158.5753, -41.8977, -41.8977, -158.5753, 65460.27396, 59972.6845)" gradientUnits="userSpaceOnUse">
            <stop offset="0" stop-color="#00a24c"/>
            <stop offset="0.26662" stop-color="#00a053"/>
            <stop offset="0.64512" stop-color="#009a65"/>
            <stop offset="1" stop-color="#00937d"/>
        </linearGradient>
        <linearGradient id="linear-gradient-5" x1="-292.52035" y1="455.01504" x2="-291.75543" y2="455.01504" gradientTransform="matrix(161.0472, 0, 0, -161.0472, 47079.92736, 73418.1982)" gradientUnits="userSpaceOnUse">
            <stop offset="0" stop-color="#00b5dd"/>
            <stop offset="0.27915" stop-color="#00afd6"/>
            <stop offset="0.68152" stop-color="#009dc3"/>
            <stop offset="1" stop-color="#008baf"/>
        </linearGradient>
        <linearGradient id="linear-gradient-6" x1="-292.83814" y1="454.7717" x2="-292.07255" y2="454.7717" gradientTransform="matrix(159.2028, -42.6583, -42.6583, -159.2028, 65993.39743, 60088.7376)" gradientUnits="userSpaceOnUse">
            <stop offset="0" stop-color="#0099d4"/>
            <stop offset="0.2217" stop-color="#0f9dd1"/>
            <stop offset="0.64563" stop-color="#36a7c8"/>
            <stop offset="1" stop-color="#5bb0c0"/>
        </linearGradient>
        <linearGradient id="linear-gradient-7" x1="-295.24294" y1="456.91302" x2="-294.47802" y2="456.91302" gradientTransform="matrix(-161.0472, 0, 0, 161.0472, -47454.3348, -73405.85623)" gradientUnits="userSpaceOnUse">
            <stop offset="0" stop-color="#3d9ac9"/>
            <stop offset="1" stop-color="#1d62a2"/>
        </linearGradient>
        <linearGradient id="linear-gradient-8" x1="-292.52035" y1="455.14146" x2="-291.75543" y2="455.14146" gradientTransform="matrix(161.0472, 0, 0, -161.0472, 47079.92736, 73495.6982)" gradientUnits="userSpaceOnUse">
            <stop offset="0" stop-color="#15438e"/>
            <stop offset="0.41197" stop-color="#1f579e"/>
            <stop offset="1" stop-color="#317aba"/>
        </linearGradient>
        <linearGradient id="linear-gradient-9" x1="-291.61542" y1="455.0712" x2="-290.84978" y2="455.0712" gradientTransform="matrix(106.4336, 17.0208, 17.0208, -106.4336, 23262.10616, 53609.2318)" gradientUnits="userSpaceOnUse">
            <stop offset="0" stop-color="#312b6e"/>
            <stop offset="0.24273" stop-color="#312b6e"/>
            <stop offset="0.44636" stop-color="#2c2e72"/>
            <stop offset="0.68653" stop-color="#1e377d"/>
            <stop offset="0.94425" stop-color="#06468f"/>
            <stop offset="1" stop-color="#004a94"/>
        </linearGradient>
        <linearGradient id="linear-gradient-10" x1="-291.66575" y1="459.90935" x2="-290.90785" y2="459.90935" gradientTransform="matrix(0, 56.1032, 56.1032, 0, -25770.3862, 16590.7858)" gradientUnits="userSpaceOnUse">
            <stop offset="0" stop-color="#203b78"/>
            <stop offset="0.23942" stop-color="#253b79"/>
            <stop offset="0.52211" stop-color="#333a7d"/>
            <stop offset="0.82552" stop-color="#4b3a82"/>
            <stop offset="1" stop-color="#5c3986"/>
        </linearGradient>
        <linearGradient id="linear-gradient-11" x1="-296.74196" y1="450.70098" x2="-295.98407" y2="450.70098" gradientTransform="matrix(0, -41.4022, -41.4022, 0, 18692.0122, -12003.5038)" gradientUnits="userSpaceOnUse">
            <stop offset="0" stop-color="#6d368c"/>
            <stop offset="0.99384" stop-color="#3b4190"/>
            <stop offset="1" stop-color="#3b4190"/>
        </linearGradient>
        <linearGradient id="linear-gradient-12" x1="-291.49015" y1="460.16769" x2="-290.73224" y2="460.16769" gradientTransform="matrix(0, 46.8522, 46.8522, 0, -21511.8682, 13926.8338)" gradientUnits="userSpaceOnUse">
            <stop offset="0" stop-color="#89357f"/>
            <stop offset="0.33538" stop-color="#89357f"/>
            <stop offset="0.71149" stop-color="#8d2c59"/>
            <stop offset="1" stop-color="#902641"/>
        </linearGradient>
        <linearGradient id="linear-gradient-13" x1="-291.66852" y1="460.81087" x2="-290.91093" y2="460.81087" gradientTransform="matrix(0, 50.6842, 50.6842, 0, -23339.8302, 15051.3268)" xlink:href="#linear-gradient-12"/>
        <linearGradient id="bosch-gradient-2" x1="-1408.7516" y1="345.43213" x2="-1408.3533" y2="345.43213" xlink:href="#bosch-gradient"/>
        <linearGradient id="linear-gradient-14" x1="-288.7078" y1="454.88716" x2="-287.94288" y2="454.88716" xlink:href="#linear-gradient"/>
        <linearGradient id="linear-gradient-15" x1="-310.58244" y1="450.59973" x2="-309.81714" y2="450.59973" xlink:href="#linear-gradient-2"/>
        <linearGradient id="linear-gradient-16" x1="-288.7078" y1="454.94261" x2="-287.94288" y2="454.94261" xlink:href="#linear-gradient-3"/>
        <linearGradient id="linear-gradient-17" x1="-289.22633" y1="453.73103" x2="-288.46045" y2="453.73103" xlink:href="#linear-gradient-4"/>
        <linearGradient id="linear-gradient-18" x1="-288.7078" y1="455.01504" x2="-287.94288" y2="455.01504" xlink:href="#linear-gradient-5"/>
        <linearGradient id="linear-gradient-19" x1="-289.23978" y1="453.80752" x2="-288.47419" y2="453.80752" xlink:href="#linear-gradient-6"/>
        <linearGradient id="linear-gradient-20" x1="-299.05549" y1="456.91302" x2="-298.29057" y2="456.91302" xlink:href="#linear-gradient-7"/>
        <linearGradient id="linear-gradient-21" x1="-288.7078" y1="455.14146" x2="-287.94288" y2="455.14146" xlink:href="#linear-gradient-8"/>
        <linearGradient id="linear-gradient-22" x1="-285.99042" y1="455.97075" x2="-285.22478" y2="455.97075" xlink:href="#linear-gradient-9"/>
        <linearGradient id="linear-gradient-23" x1="-291.66575" y1="470.85347" x2="-290.90785" y2="470.85347" xlink:href="#linear-gradient-10"/>
        <linearGradient id="linear-gradient-24" x1="-296.74196" y1="435.87085" x2="-295.98407" y2="435.87085" xlink:href="#linear-gradient-11"/>
        <linearGradient id="linear-gradient-25" x1="-291.49015" y1="473.27273" x2="-290.73224" y2="473.27273" xlink:href="#linear-gradient-12"/>
        <linearGradient id="linear-gradient-26" x1="-291.66852" y1="472.9251" x2="-290.91093" y2="472.9251" gradientTransform="matrix(0, 50.6842, 50.6842, 0, -23339.8302, 15051.3268)" xlink:href="#linear-gradient-12"/>
        <linearGradient id="Bosch-Gradient-3" x1="-1231.77999" y1="344.25888" x2="-1231.01935" y2="344.25888" gradientTransform="matrix(723.07397, 0, 0, -723.07397, 890732.05322, 248956.63843)" xlink:href="#bosch-gradient"/>
        <linearGradient id="linear-gradient-27" x1="-293.25393" y1="456.14074" x2="-292.48879" y2="456.14074" gradientTransform="matrix(0, 306.44489, 306.44489, 0, -139190.23975, 89780.76087)" xlink:href="#linear-gradient"/>
        <linearGradient id="linear-gradient-28" x1="-295.56537" y1="454.18254" x2="-294.80035" y2="454.18254" gradientTransform="matrix(45.6665, -81.4643, -81.4643, -45.6665, 51060.4303, -3316.2417)" xlink:href="#linear-gradient-2"/>
        <linearGradient id="linear-gradient-29" x1="-293.25393" y1="456.20489" x2="-292.48879" y2="456.20489" gradientTransform="matrix(0, 306.44489, 306.44489, 0, -139254.23975, 89780.76087)" xlink:href="#linear-gradient-3"/>
        <linearGradient id="linear-gradient-30" x1="-293.22598" y1="456.07493" x2="-292.46136" y2="456.07493" gradientTransform="matrix(79.7241, 301.74129, 301.74129, -79.7241, -113765.81379, 124754.91852)" xlink:href="#linear-gradient-4"/>
        <linearGradient id="linear-gradient-31" x1="-293.25393" y1="456.26814" x2="-292.48879" y2="456.26814" gradientTransform="matrix(0, 306.44489, 306.44489, 0, -139350.73975, 89780.76087)" xlink:href="#linear-gradient-5"/>
        <linearGradient id="linear-gradient-32" x1="-293.20953" y1="456.15134" x2="-292.44479" y2="456.15134" gradientTransform="matrix(81.1713, 302.93519, 302.93519, -81.1713, -113988.56713, 125768.76008)" xlink:href="#linear-gradient-6"/>
        <linearGradient id="linear-gradient-33" x1="-294.51333" y1="455.66136" x2="-293.74818" y2="455.66136" gradientTransform="matrix(0, -306.4449, -306.4449, 0, 140029.1769, -90102.8126)" xlink:href="#linear-gradient-7"/>
        <linearGradient id="linear-gradient-34" x1="-293.25393" y1="456.39681" x2="-292.48879" y2="456.39681" gradientTransform="matrix(0, 306.44489, 306.44489, 0, -139497.73975, 89780.76087)" xlink:href="#linear-gradient-8"/>
        <linearGradient id="linear-gradient-35" x1="-292.98956" y1="456.7388" x2="-292.22518" y2="456.7388" gradientTransform="matrix(-32.3877, 202.52459, 202.52459, 32.3877, -101658.87594, 44459.0489)" xlink:href="#linear-gradient-9"/>
        <linearGradient id="linear-gradient-36" x1="-295.26229" y1="457.8049" x2="-294.50135" y2="457.8049" gradientTransform="matrix(-106.7547, 0, 0, 106.7547, -31218.6438, -48840.8236)" xlink:href="#linear-gradient-10"/>
        <linearGradient id="linear-gradient-37" x1="-291.87848" y1="453.54595" x2="-291.11783" y2="453.54595" gradientTransform="matrix(78.7812, 0, 0, -78.7812, 23191.7078, 35762.8942)" xlink:href="#linear-gradient-11"/>
        <linearGradient id="linear-gradient-38" x1="-295.79726" y1="457.48069" x2="-295.0374" y2="457.48069" gradientTransform="matrix(-89.1517, 0, 0, 89.1517, -26150.0738, -40737.1807)" xlink:href="#linear-gradient-12"/>
        <linearGradient id="linear-gradient-39" x1="-295.64873" y1="458.63083" x2="-294.88767" y2="458.63083" gradientTransform="matrix(-96.4433, 0, 0, 96.4433, -28289.5412, -44215.8693)" xlink:href="#linear-gradient-12"/>
        <linearGradient id="Bosch-Gradient-4" x1="-1231.77999" y1="343.77207" x2="-1231.01935" y2="343.77207" gradientTransform="matrix(723.07397, 0, 0, -723.07397, 890732.05322, 248956.63843)" xlink:href="#bosch-gradient"/>
        <linearGradient id="linear-gradient-40" x1="-292.10528" y1="456.14074" x2="-291.34013" y2="456.14074" gradientTransform="matrix(0, 306.44489, 306.44489, 0, -139190.23975, 89780.76087)" xlink:href="#linear-gradient"/>
        <linearGradient id="linear-gradient-41" x1="-298.85314" y1="452.33952" x2="-298.08811" y2="452.33952" gradientTransform="matrix(45.6665, -81.4643, -81.4643, -45.6665, 51060.4303, -3316.2417)" xlink:href="#linear-gradient-2"/>
        <linearGradient id="linear-gradient-42" x1="-292.10528" y1="456.20489" x2="-291.34013" y2="456.20489" gradientTransform="matrix(0, 306.44489, 306.44489, 0, -139254.23975, 89780.76087)" xlink:href="#linear-gradient-3"/>
        <linearGradient id="linear-gradient-43" x1="-292.13554" y1="455.78683" x2="-291.37092" y2="455.78683" gradientTransform="matrix(79.7241, 301.74129, 301.74129, -79.7241, -113765.81379, 124754.91852)" xlink:href="#linear-gradient-4"/>
        <linearGradient id="linear-gradient-44" x1="-292.10528" y1="456.26814" x2="-291.34013" y2="456.26814" gradientTransform="matrix(0, 306.44489, 306.44489, 0, -139350.73975, 89780.76087)" xlink:href="#linear-gradient-5"/>
        <linearGradient id="linear-gradient-45" x1="-292.12541" y1="455.86085" x2="-291.36066" y2="455.86085" gradientTransform="matrix(81.1713, 302.93519, 302.93519, -81.1713, -113988.56713, 125768.76008)" xlink:href="#linear-gradient-6"/>
        <linearGradient id="linear-gradient-46" x1="-295.66198" y1="455.66136" x2="-294.89684" y2="455.66136" gradientTransform="matrix(0, -306.4449, -306.4449, 0, 140029.1769, -90102.8126)" xlink:href="#linear-gradient-7"/>
        <linearGradient id="linear-gradient-47" x1="-292.10528" y1="456.39681" x2="-291.34013" y2="456.39681" gradientTransform="matrix(0, 306.44489, 306.44489, 0, -139497.73975, 89780.76087)" xlink:href="#linear-gradient-8"/>
        <linearGradient id="linear-gradient-48" x1="-291.29484" y1="457.00982" x2="-290.53046" y2="457.00982" gradientTransform="matrix(-32.3877, 202.52459, 202.52459, 32.3877, -101658.87594, 44459.0489)" xlink:href="#linear-gradient-9"/>
        <linearGradient id="linear-gradient-49" x1="-295.26229" y1="461.10218" x2="-294.50135" y2="461.10218" gradientTransform="matrix(-106.7547, 0, 0, 106.7547, -31218.6438, -48840.8236)" xlink:href="#linear-gradient-10"/>
        <linearGradient id="linear-gradient-50" x1="-291.87848" y1="449.07788" x2="-291.11783" y2="449.07788" gradientTransform="matrix(78.7812, 0, 0, -78.7812, 23191.7078, 35762.8942)" xlink:href="#linear-gradient-11"/>
        <linearGradient id="linear-gradient-51" x1="-295.79726" y1="461.42902" x2="-295.0374" y2="461.42902" gradientTransform="matrix(-89.1517, 0, 0, 89.1517, -26150.0738, -40737.1807)" xlink:href="#linear-gradient-12"/>
        <linearGradient id="linear-gradient-52" x1="-295.64873" y1="462.28064" x2="-294.88767" y2="462.28064" gradientTransform="matrix(-96.4433, 0, 0, 96.4433, -28289.5412, -44215.8693)" xlink:href="#linear-gradient-12"/>
    </defs>    <title></title>

    <g transform="translate(0,0)">
            <g id="brand-claim-portuguese">
                <g id="claim-portuguese" fill="#000000">
                    <path d="M144.41553,116.77637v-1.84766h14.08593v1.84766h-5.918v17.2998h-2.22266v-17.2998Z"/>
                    <path d="M170.77,131.85352a5.90886,5.90886,0,0,1-5.3291,2.46386c-4.44531,0-6.93555-2.91894-6.93555-7.2041,0-4.31152,2.59766-7.2832,6.37354-7.2832,3.72216,0,5.99853,2.624,5.99853,6.96191v.72363H160.80811c.05371,2.00782.50878,3.13282,1.47314,4.01661a4.359,4.359,0,0,0,3.10645.9375,4.09657,4.09657,0,0,0,3.749-1.92871Zm-2.16895-6.13282c-.29443-2.86523-1.36572-4.043-3.6958-4.043-2.22265,0-3.50781,1.31153-4.0166,4.043Z"/>
                    <path d="M186.01123,131.37109a5.82858,5.82858,0,0,1-5.48975,2.94629c-3.90966,0-6.5874-2.97265-6.5874-7.23047,0-4.33789,2.59766-7.25683,6.45362-7.25683a5.93346,5.93346,0,0,1,5.27539,2.78418l-1.84766,1.15234c-1.04443-1.55371-1.87451-2.08887-3.40088-2.08887-2.62451,0-4.17773,2.00782-4.17773,5.46289,0,3.4004,1.52636,5.32911,4.33838,5.32911a3.95568,3.95568,0,0,0,3.69531-2.08887Z"/>
                    <path d="M191.9873,120.07031v2.14258a4.47387,4.47387,0,0,1,4.25782-2.38281c2.99951,0,4.63281,1.9541,4.63281,5.56933v8.67676h-2.22266v-8.83691c0-2.41016-.91064-3.48145-2.97265-3.48145a3.48665,3.48665,0,0,0-3.69532,3.749v8.56933h-2.22265V120.07031Z"/>
                    <path d="M218.28906,127.05957c0,4.23145-2.7583,7.25781-6.6416,7.25781-3.80225,0-6.5874-3.05273-6.5874-7.23047,0-4.23144,2.7583-7.25683,6.668-7.25683C215.53076,119.83008,218.28906,122.88281,218.28906,127.05957Zm-10.92627.05371c0,3.29395,1.66065,5.35645,4.28467,5.35645,2.65137,0,4.33838-2.08887,4.33838-5.38282,0-3.26757-1.687-5.40918-4.25781-5.40918C209.02344,121.67773,207.36279,123.71289,207.36279,127.11328Z"/>
                    <path d="M228.49609,133.64746a4.40417,4.40417,0,0,1-2.46386.64258c-2.03516,0-3.40137-.91016-3.40137-3.69531v-16.6836h2.22266v16.8711c0,1.3125.69628,1.66015,1.52734,1.66015a2.11032,2.11032,0,0,0,1.3916-.45508Z"/>
                    <path d="M243.25293,127.05957c0,4.23145-2.75781,7.25781-6.64063,7.25781-3.80273,0-6.58789-3.05273-6.58789-7.23047,0-4.23144,2.75782-7.25683,6.668-7.25683C240.49512,119.83008,243.25293,122.88281,243.25293,127.05957Zm-10.92578.05371c0,3.29395,1.66015,5.35645,4.28515,5.35645,2.6504,0,4.3379-2.08887,4.3379-5.38282,0-3.26757-1.6875-5.40918-4.25782-5.40918C233.9873,121.67773,232.32715,123.71289,232.32715,127.11328Z"/>
                    <path d="M253.80859,131.02344c3.16016,0,4.92774,1.36523,4.92774,3.77539,0,2.75879-2.54395,4.499-6.61426,4.499-3.77637,0-6.18652-1.499-6.18652-3.85547,0-1.25879.77636-2.25,2.38379-3a2.36588,2.36588,0,0,1-1.36621-2.249,2.63583,2.63583,0,0,1,1.52636-2.38379,4.19778,4.19778,0,0,1-1.71386-3.42773c0-2.70411,2.08886-4.55176,5.1416-4.55176a6.27441,6.27441,0,0,1,2.78515.58886l4.0166-.5625v2.00879h-2.08886a4.05794,4.05794,0,0,1,.91113,2.67774c0,2.75781-2.03516,4.44531-5.30273,4.44531a6.14858,6.14858,0,0,1-2.54395-.48242,1.62529,1.62529,0,0,0-.72266,1.3125c0,.91016.50879,1.20508,2.06153,1.20508Zm-3.05273,1.92773c-.21387,0-.66992-.02637-.88379-.05371-1.23144.61621-1.76758,1.33984-1.76758,2.33008,0,1.52637,1.36621,2.30273,4.07031,2.30273,2.89258,0,4.39258-.91015,4.39258-2.624,0-1.3125-.9375-1.95508-2.78515-1.95508Zm-1.76758-8.56933c0,1.74121,1.23242,2.83886,3.24024,2.83886,1.98144,0,3.08007-.99121,3.08007-2.78515,0-1.71387-1.23242-2.83887-3.18652-2.83887C250.167,121.59668,248.98828,122.6416,248.98828,124.38184Z"/>
                    <path d="M265.11328,115.70605a1.47266,1.47266,0,1,1-1.47265-1.47363A1.48643,1.48643,0,0,1,265.11328,115.70605Zm-.32129,4.36426v14.00586h-2.22265V120.07031Z"/>
                    <path d="M281.55762,134.15625c-.29395.02734-.5625.02734-.77637.02734a2.73614,2.73614,0,0,1-2.89258-2.00879,5.284,5.284,0,0,1-4.31054,2.14258c-2.59766,0-4.41895-1.60742-4.41895-3.85644,0-2.06153,1.36523-3.53516,3.85645-4.2041a19.00806,19.00806,0,0,1,4.73925-.53614v-.88379c0-2.16894-.85644-3.15918-2.75781-3.15918a5.66333,5.66333,0,0,0-4.0166,1.74024l-1.3125-1.44629a7.26836,7.26836,0,0,1,5.3291-2.1416c3.21289,0,4.98047,1.7666,4.98047,5.00683v6.24024c0,.99023.375,1.31152,1.58008,1.33887Zm-3.80274-6.85547c-4.499.16113-6.373,1.04492-6.373,3.05274,0,1.39257.91015,2.16992,2.57031,2.16992,2.22265,0,3.80273-1.28614,3.80273-3.08008Z"/>
                    <path d="M295.99707,120.07031V122.374a5.31586,5.31586,0,0,1,4.66016-2.54394c3.58789,0,5.97168,2.83789,5.97168,7.17676,0,4.418-2.35645,7.31054-5.999,7.31054a5.19329,5.19329,0,0,1-4.63281-2.49023v7.123h-2.22266V120.07031Zm-.08008,7.0166c0,3.42774,1.58008,5.38282,4.33887,5.38282,2.7041,0,4.07031-1.76758,4.07031-5.32911,0-3.42773-1.5-5.46289-4.04394-5.46289C297.55078,121.67773,295.917,123.71289,295.917,127.08691Z"/>
                    <path d="M322.19238,134.15625c-.29394.02734-.5625.02734-.77636.02734a2.73614,2.73614,0,0,1-2.89258-2.00879,5.284,5.284,0,0,1-4.31055,2.14258c-2.59766,0-4.41894-1.60742-4.41894-3.85644,0-2.06153,1.36523-3.53516,3.85644-4.2041a19.00809,19.00809,0,0,1,4.73926-.53614v-.88379c0-2.16894-.85645-3.15918-2.75781-3.15918a5.66337,5.66337,0,0,0-4.01661,1.74024l-1.3125-1.44629a7.26839,7.26839,0,0,1,5.32911-2.1416c3.21289,0,4.98046,1.7666,4.98046,5.00683v6.24024c0,.99023.375,1.31152,1.58008,1.33887Zm-3.80273-6.85547c-4.499.16113-6.37305,1.04492-6.37305,3.05274,0,1.39257.91016,2.16992,2.57031,2.16992,2.22266,0,3.80274-1.28614,3.80274-3.08008Z"/>
                    <path d="M328.00684,120.07031v2.25a4.07,4.07,0,0,1,3.75-2.49023,4.48527,4.48527,0,0,1,2.27539.56152l-.91016,1.875a3.05344,3.05344,0,0,0-1.63379-.42871c-2.16894,0-3.48144,1.74121-3.48144,4.55273v7.68555h-2.22266V120.07031Z"/>
                    <path d="M348.1748,134.15625c-.29394.02734-.5625.02734-.77636.02734a2.73614,2.73614,0,0,1-2.89258-2.00879,5.284,5.284,0,0,1-4.31055,2.14258c-2.59765,0-4.41894-1.60742-4.41894-3.85644,0-2.06153,1.36523-3.53516,3.85644-4.2041a19.00815,19.00815,0,0,1,4.73926-.53614v-.88379c0-2.16894-.85644-3.15918-2.75781-3.15918a5.66333,5.66333,0,0,0-4.0166,1.74024l-1.3125-1.44629a7.26835,7.26835,0,0,1,5.3291-2.1416c3.21289,0,4.98047,1.7666,4.98047,5.00683v6.24024c0,.99023.375,1.31152,1.58007,1.33887Zm-3.80273-6.85547c-4.499.16113-6.37305,1.04492-6.37305,3.05274,0,1.39257.91016,2.16992,2.57032,2.16992,2.22265,0,3.80273-1.28614,3.80273-3.08008Z"/>
                    <path d="M371.6123,134.15625c-.29394.02734-.5625.02734-.77636.02734a2.73614,2.73614,0,0,1-2.89258-2.00879,5.284,5.284,0,0,1-4.31055,2.14258c-2.59765,0-4.41894-1.60742-4.41894-3.85644,0-2.06153,1.36523-3.53516,3.85644-4.2041a19.00815,19.00815,0,0,1,4.73926-.53614v-.88379c0-2.16894-.85644-3.15918-2.75781-3.15918a5.66333,5.66333,0,0,0-4.0166,1.74024l-1.3125-1.44629a7.26835,7.26835,0,0,1,5.3291-2.1416c3.21289,0,4.98047,1.7666,4.98047,5.00683v6.24024c0,.99023.375,1.31152,1.58007,1.33887Zm-3.80273-6.85547c-4.499.16113-6.37305,1.04492-6.37305,3.05274,0,1.39257.91016,2.16992,2.57032,2.16992,2.22265,0,3.80273-1.28614,3.80273-3.08008Z"/>
                    <path d="M384.044,120.07031l3.749,11.75684,3.66894-11.75684h2.30274l-4.71289,14.00586h-2.625l-4.793-14.00586Z"/>
                    <path d="M399.5791,115.70605a1.47266,1.47266,0,1,1-1.47265-1.47363A1.48643,1.48643,0,0,1,399.5791,115.70605Zm-.32129,4.36426v14.00586h-2.22265V120.07031Z"/>
                    <path d="M414.25586,131.82715a5.22094,5.22094,0,0,1-4.63281,2.49023c-3.6416,0-5.998-2.86523-5.998-7.31054,0-4.33887,2.38281-7.17676,5.97168-7.17676a5.31311,5.31311,0,0,1,4.65918,2.54394v-8.46289h2.22266v20.165h-2.22266Zm-8.32813-4.68653c0,3.53418,1.33887,5.32911,4.01661,5.32911,2.8125,0,4.39257-1.95508,4.39257-5.38282,0-3.34765-1.63378-5.40918-4.31152-5.40918C407.40039,121.67773,405.92773,123.65918,405.92773,127.14062Z"/>
                    <path d="M432.95313,134.15625c-.29395.02734-.5625.02734-.77637.02734a2.73614,2.73614,0,0,1-2.89258-2.00879,5.28448,5.28448,0,0,1-4.31152,2.14258c-2.59668,0-4.418-1.60742-4.418-3.85644,0-2.06153,1.36523-3.53516,3.85644-4.2041a19.00815,19.00815,0,0,1,4.73926-.53614v-.88379c0-2.16894-.85644-3.15918-2.75781-3.15918a5.66333,5.66333,0,0,0-4.0166,1.74024l-1.3125-1.44629a7.26835,7.26835,0,0,1,5.3291-2.1416c3.21289,0,4.98047,1.7666,4.98047,5.00683v6.24024c0,.99023.375,1.31152,1.58008,1.33887Zm-3.80274-6.85547c-4.499.16113-6.37305,1.04492-6.37305,3.05274,0,1.39257.91015,2.16992,2.57032,2.16992,2.22265,0,3.80273-1.28614,3.80273-3.08008Z"/>
                </g>
                <g id="brand-portuguese-2">
                    <g id="logotype-11" data-name="logotype">
                        <path id="logotype-b-11" data-name="logotype-b" d="M185.2,62.408a13.76635,13.76635,0,0,0,8.8-13c0-11.7-8.3-17.5-19.7-17.5H144.4v63.6h32.5c10,0,19.8-7,19.8-17.7C196.7,65.108,185.2,62.508,185.2,62.408ZM160,45.108h11.6a5.66863,5.66863,0,0,1,6,6,5.9267,5.9267,0,0,1-6.3,5.8H159.9l.1-11.8Zm11.7,37.1H160.1v-12.5h11.3c5.7,0,8.4,2.5,8.4,6.2C179.8,80.508,176.4,82.208,171.7,82.208Z" style="fill:#EA0016;fill-rule:evenodd"/>
                        <path id="logotype-o-11" data-name="logotype-o" d="M231.1,30.308c-18.4,0-29.2,14.7-29.2,33.3,0,18.7,10.8,33.3,29.2,33.3,18.5,0,29.2-14.6,29.2-33.3C260.3,45.008,249.6,30.308,231.1,30.308Zm0,51.4c-9,0-13.5-8.1-13.5-18.1s4.5-18,13.5-18,13.6,8.1,13.6,18C244.7,73.708,240.1,81.708,231.1,81.708Z" style="fill:#EA0016;fill-rule:evenodd"/>
                        <path id="logotype-s-11" data-name="logotype-s" d="M294.2,56.908l-2.2-.5c-5.4-1.1-9.7-2.5-9.7-6.4,0-4.2,4.1-5.9,7.7-5.9a17.89364,17.89364,0,0,1,13,5.9l9.9-9.8c-4.5-5.1-11.8-10-23.2-10-13.4,0-23.6,7.5-23.6,20,0,11.4,8.2,17,18.2,19.1l2.2.5c8.3,1.7,11.4,3,11.4,7,0,3.8-3.4,6.3-8.6,6.3-6.2,0-11.8-2.7-16.1-8.2l-10.1,10c5.6,6.7,12.7,11.9,26.4,11.9,11.9,0,24.6-6.8,24.6-20.7C314.3,61.608,303.3,58.808,294.2,56.908Z" style="fill:#EA0016;fill-rule:evenodd"/>
                        <path id="logotype-c-11" data-name="logotype-c" d="M349.7,81.708c-7,0-14.3-5.8-14.3-18.5,0-11.3,6.8-17.6,13.9-17.6,5.6,0,8.9,2.6,11.5,7.1l12.8-8.5c-6.4-9.7-14-13.8-24.5-13.8-19.2,0-29.6,14.9-29.6,32.9,0,18.9,11.5,33.7,29.4,33.7,12.6,0,18.6-4.4,25.1-13.8l-12.9-8.7C358.5,78.708,355.7,81.708,349.7,81.708Z" style="fill:#EA0016;fill-rule:evenodd"/>
                        <polygon id="logotype-h-11" data-name="logotype-h" points="416.3 31.908 416.3 55.308 397 55.308 397 31.908 380.3 31.908 380.3 95.508 397 95.508 397 70.408 416.3 70.408 416.3 95.508 433 95.508 433 31.908 416.3 31.908" style="fill:#EA0016;fill-rule:evenodd"/>
                    </g>
                    <g id="symbol-11" data-name="symbol">
                        <path d="M48.2,15.708a48.2,48.2,0,1,0,48.2,48.2A48.22579,48.22579,0,0,0,48.2,15.708Zm0,91.9a43.7,43.7,0,1,1,43.7-43.7A43.7447,43.7447,0,0,1,48.2,107.608Z" style="fill:#606061"/>
                        <path d="M68.1,33.808H64.8v16.5H31.7v-16.5H28.3a36.06329,36.06329,0,0,0,0,60.2h3.4v-16.5H64.8v16.5h3.3a36.06329,36.06329,0,0,0,0-60.2Zm-41,53.7a31.5717,31.5717,0,0,1,0-47.2Zm37.7-14.6H31.7v-18.1H64.8Zm4.5,14.5v-10h0v-27.1h0v-10a31.65957,31.65957,0,0,1,0,47.1Z" style="fill:#606061"/>
                    </g>
                </g>
            </g>    </g>

</svg>